<mxfile host="app.diagrams.net" modified="2024-06-22T01:01:58.062Z" agent="Mozilla/5.0 (X11; Linux x86_64; rv:126.0) Gecko/20100101 Firefox/126.0" etag="-AGkre3Qt9uP9gQ6dKtO" version="24.6.0" type="device">
  <diagram name="Page-1" id="VVhmB19lJa970bU6VVn2">
    <mxGraphModel dx="2074" dy="1107" grid="1" gridSize="10" guides="1" tooltips="1" connect="1" arrows="1" fold="1" page="1" pageScale="1" pageWidth="850" pageHeight="1100" math="0" shadow="0">
      <root>
        <mxCell id="0" />
        <mxCell id="1" parent="0" />
        <mxCell id="E7-By8wQyRp-O-3EYaCL-7" value="AI Story Generator Block Diagram" style="swimlane;whiteSpace=wrap;html=1;fillColor=#f8cecc;strokeColor=#b85450;" parent="1" vertex="1">
          <mxGeometry x="20" y="20" width="1180" height="980" as="geometry" />
        </mxCell>
        <mxCell id="E7-By8wQyRp-O-3EYaCL-1" value="&lt;div&gt;User Prompt&lt;/div&gt;" style="rounded=0;whiteSpace=wrap;html=1;" parent="E7-By8wQyRp-O-3EYaCL-7" vertex="1">
          <mxGeometry x="20" y="80" width="120" height="60" as="geometry" />
        </mxCell>
        <mxCell id="E7-By8wQyRp-O-3EYaCL-9" value="Outline Generation Process" style="swimlane;whiteSpace=wrap;html=1;fillColor=#dae8fc;strokeColor=#6c8ebf;" parent="E7-By8wQyRp-O-3EYaCL-7" vertex="1">
          <mxGeometry x="160" y="40" width="460" height="200" as="geometry">
            <mxRectangle x="160" y="40" width="190" height="30" as="alternateBounds" />
          </mxGeometry>
        </mxCell>
        <mxCell id="E7-By8wQyRp-O-3EYaCL-11" value="" style="edgeStyle=orthogonalEdgeStyle;rounded=0;orthogonalLoop=1;jettySize=auto;html=1;" parent="E7-By8wQyRp-O-3EYaCL-9" source="E7-By8wQyRp-O-3EYaCL-2" target="E7-By8wQyRp-O-3EYaCL-10" edge="1">
          <mxGeometry relative="1" as="geometry" />
        </mxCell>
        <mxCell id="E7-By8wQyRp-O-3EYaCL-2" value="Prompt Model 1 To Generate Outline" style="rounded=0;whiteSpace=wrap;html=1;" parent="E7-By8wQyRp-O-3EYaCL-9" vertex="1">
          <mxGeometry x="20" y="40" width="120" height="60" as="geometry" />
        </mxCell>
        <mxCell id="E7-By8wQyRp-O-3EYaCL-14" style="edgeStyle=orthogonalEdgeStyle;rounded=0;orthogonalLoop=1;jettySize=auto;html=1;entryX=0.5;entryY=0;entryDx=0;entryDy=0;" parent="E7-By8wQyRp-O-3EYaCL-9" source="E7-By8wQyRp-O-3EYaCL-10" target="E7-By8wQyRp-O-3EYaCL-13" edge="1">
          <mxGeometry relative="1" as="geometry" />
        </mxCell>
        <mxCell id="E7-By8wQyRp-O-3EYaCL-10" value="Prompt Model 2 To Provide Feedback / Suggested Revisions On Outline" style="rounded=0;whiteSpace=wrap;html=1;" parent="E7-By8wQyRp-O-3EYaCL-9" vertex="1">
          <mxGeometry x="160" y="40" width="120" height="60" as="geometry" />
        </mxCell>
        <mxCell id="E7-By8wQyRp-O-3EYaCL-16" style="edgeStyle=orthogonalEdgeStyle;rounded=0;orthogonalLoop=1;jettySize=auto;html=1;entryX=1;entryY=0.5;entryDx=0;entryDy=0;" parent="E7-By8wQyRp-O-3EYaCL-9" source="E7-By8wQyRp-O-3EYaCL-13" target="E7-By8wQyRp-O-3EYaCL-15" edge="1">
          <mxGeometry relative="1" as="geometry" />
        </mxCell>
        <mxCell id="E7-By8wQyRp-O-3EYaCL-13" value="Is Outline Good?" style="rhombus;whiteSpace=wrap;html=1;" parent="E7-By8wQyRp-O-3EYaCL-9" vertex="1">
          <mxGeometry x="320" y="110" width="80" height="80" as="geometry" />
        </mxCell>
        <mxCell id="E7-By8wQyRp-O-3EYaCL-18" value="" style="edgeStyle=orthogonalEdgeStyle;rounded=0;orthogonalLoop=1;jettySize=auto;html=1;" parent="E7-By8wQyRp-O-3EYaCL-9" source="E7-By8wQyRp-O-3EYaCL-15" target="E7-By8wQyRp-O-3EYaCL-10" edge="1">
          <mxGeometry relative="1" as="geometry" />
        </mxCell>
        <mxCell id="E7-By8wQyRp-O-3EYaCL-15" value="Prompt Model 1 To Revise Outline" style="rounded=0;whiteSpace=wrap;html=1;" parent="E7-By8wQyRp-O-3EYaCL-9" vertex="1">
          <mxGeometry x="160" y="120" width="120" height="60" as="geometry" />
        </mxCell>
        <mxCell id="E7-By8wQyRp-O-3EYaCL-17" value="No" style="text;html=1;align=center;verticalAlign=middle;resizable=0;points=[];autosize=1;strokeColor=none;fillColor=none;" parent="E7-By8wQyRp-O-3EYaCL-9" vertex="1">
          <mxGeometry x="280" y="120" width="40" height="30" as="geometry" />
        </mxCell>
        <mxCell id="E7-By8wQyRp-O-3EYaCL-8" value="" style="edgeStyle=orthogonalEdgeStyle;rounded=0;orthogonalLoop=1;jettySize=auto;html=1;" parent="E7-By8wQyRp-O-3EYaCL-7" source="E7-By8wQyRp-O-3EYaCL-1" target="E7-By8wQyRp-O-3EYaCL-2" edge="1">
          <mxGeometry relative="1" as="geometry" />
        </mxCell>
        <mxCell id="E7-By8wQyRp-O-3EYaCL-19" value="Chapter Generation Process" style="swimlane;whiteSpace=wrap;html=1;fillColor=#dae8fc;strokeColor=#6c8ebf;" parent="E7-By8wQyRp-O-3EYaCL-7" vertex="1">
          <mxGeometry x="40" y="282.5" width="1120" height="475" as="geometry" />
        </mxCell>
        <mxCell id="ltB6q_ZLXanU9qL2ggv_-4" value="Preprocessing Step" style="swimlane;whiteSpace=wrap;html=1;fillColor=#f8cecc;strokeColor=#b85450;" vertex="1" parent="E7-By8wQyRp-O-3EYaCL-19">
          <mxGeometry x="140" y="40" width="300" height="170" as="geometry" />
        </mxCell>
        <mxCell id="ltB6q_ZLXanU9qL2ggv_-6" value="" style="edgeStyle=orthogonalEdgeStyle;rounded=0;orthogonalLoop=1;jettySize=auto;html=1;" edge="1" parent="ltB6q_ZLXanU9qL2ggv_-4" source="ltB6q_ZLXanU9qL2ggv_-1" target="ltB6q_ZLXanU9qL2ggv_-2">
          <mxGeometry relative="1" as="geometry" />
        </mxCell>
        <mxCell id="ltB6q_ZLXanU9qL2ggv_-1" value="Extract Outline For This Chapter From Story Outline" style="rounded=0;whiteSpace=wrap;html=1;" vertex="1" parent="ltB6q_ZLXanU9qL2ggv_-4">
          <mxGeometry x="20" y="45" width="120" height="60" as="geometry" />
        </mxCell>
        <mxCell id="ltB6q_ZLXanU9qL2ggv_-2" value="Generate Summary And Key Points From Previous Generated Chapter (if applicable)" style="rounded=0;whiteSpace=wrap;html=1;" vertex="1" parent="ltB6q_ZLXanU9qL2ggv_-4">
          <mxGeometry x="160" y="45" width="120" height="60" as="geometry" />
        </mxCell>
        <mxCell id="ltB6q_ZLXanU9qL2ggv_-7" value="Chapter Generation Step" style="swimlane;whiteSpace=wrap;html=1;fillColor=#f8cecc;strokeColor=#b85450;" vertex="1" parent="E7-By8wQyRp-O-3EYaCL-19">
          <mxGeometry x="630" y="40" width="440" height="210" as="geometry" />
        </mxCell>
        <mxCell id="ltB6q_ZLXanU9qL2ggv_-9" style="edgeStyle=orthogonalEdgeStyle;rounded=0;orthogonalLoop=1;jettySize=auto;html=1;startArrow=classic;startFill=1;" edge="1" parent="ltB6q_ZLXanU9qL2ggv_-7" source="E7-By8wQyRp-O-3EYaCL-25" target="ltB6q_ZLXanU9qL2ggv_-8">
          <mxGeometry relative="1" as="geometry" />
        </mxCell>
        <mxCell id="E7-By8wQyRp-O-3EYaCL-25" value="Prompt Model 3 To Generate Chapter Plot From Outline" style="rounded=0;whiteSpace=wrap;html=1;" parent="ltB6q_ZLXanU9qL2ggv_-7" vertex="1">
          <mxGeometry x="20" y="45" width="120" height="60" as="geometry" />
        </mxCell>
        <mxCell id="UKoIyRiI0bJd6UIJq8W4-1" value="Prompt Model 4 To Add Chapter Char. Development From Outline To Chapter" style="rounded=0;whiteSpace=wrap;html=1;" parent="ltB6q_ZLXanU9qL2ggv_-7" vertex="1">
          <mxGeometry x="160" y="45" width="120" height="60" as="geometry" />
        </mxCell>
        <mxCell id="UKoIyRiI0bJd6UIJq8W4-4" value="&lt;div&gt;Prompt Model 5 To Add Chapter Dialogue From Outline To Chapter&lt;/div&gt;" style="rounded=0;whiteSpace=wrap;html=1;" parent="ltB6q_ZLXanU9qL2ggv_-7" vertex="1">
          <mxGeometry x="300" y="45" width="120" height="60" as="geometry" />
        </mxCell>
        <mxCell id="UKoIyRiI0bJd6UIJq8W4-2" value="" style="edgeStyle=orthogonalEdgeStyle;rounded=0;orthogonalLoop=1;jettySize=auto;html=1;" parent="ltB6q_ZLXanU9qL2ggv_-7" source="E7-By8wQyRp-O-3EYaCL-25" target="UKoIyRiI0bJd6UIJq8W4-1" edge="1">
          <mxGeometry relative="1" as="geometry" />
        </mxCell>
        <mxCell id="UKoIyRiI0bJd6UIJq8W4-5" value="" style="edgeStyle=orthogonalEdgeStyle;rounded=0;orthogonalLoop=1;jettySize=auto;html=1;" parent="ltB6q_ZLXanU9qL2ggv_-7" source="UKoIyRiI0bJd6UIJq8W4-1" target="UKoIyRiI0bJd6UIJq8W4-4" edge="1">
          <mxGeometry relative="1" as="geometry" />
        </mxCell>
        <mxCell id="ltB6q_ZLXanU9qL2ggv_-8" value="Check If LLM Fully Addressed The Prompt, If Not, Regenerate" style="rounded=0;whiteSpace=wrap;html=1;" vertex="1" parent="ltB6q_ZLXanU9qL2ggv_-7">
          <mxGeometry x="20" y="130" width="120" height="60" as="geometry" />
        </mxCell>
        <mxCell id="ltB6q_ZLXanU9qL2ggv_-18" style="edgeStyle=orthogonalEdgeStyle;rounded=0;orthogonalLoop=1;jettySize=auto;html=1;startArrow=classic;startFill=1;" edge="1" parent="ltB6q_ZLXanU9qL2ggv_-7" target="ltB6q_ZLXanU9qL2ggv_-19">
          <mxGeometry relative="1" as="geometry">
            <mxPoint x="220" y="105" as="sourcePoint" />
          </mxGeometry>
        </mxCell>
        <mxCell id="ltB6q_ZLXanU9qL2ggv_-19" value="Check If LLM Fully Addressed The Prompt, If Not, Regenerate" style="rounded=0;whiteSpace=wrap;html=1;" vertex="1" parent="ltB6q_ZLXanU9qL2ggv_-7">
          <mxGeometry x="160" y="130" width="120" height="60" as="geometry" />
        </mxCell>
        <mxCell id="ltB6q_ZLXanU9qL2ggv_-20" style="edgeStyle=orthogonalEdgeStyle;rounded=0;orthogonalLoop=1;jettySize=auto;html=1;startArrow=classic;startFill=1;" edge="1" parent="ltB6q_ZLXanU9qL2ggv_-7" target="ltB6q_ZLXanU9qL2ggv_-21">
          <mxGeometry relative="1" as="geometry">
            <mxPoint x="360" y="105" as="sourcePoint" />
          </mxGeometry>
        </mxCell>
        <mxCell id="ltB6q_ZLXanU9qL2ggv_-21" value="Check If LLM Fully Addressed The Prompt, If Not, Regenerate" style="rounded=0;whiteSpace=wrap;html=1;" vertex="1" parent="ltB6q_ZLXanU9qL2ggv_-7">
          <mxGeometry x="300" y="130" width="120" height="60" as="geometry" />
        </mxCell>
        <mxCell id="ltB6q_ZLXanU9qL2ggv_-15" style="edgeStyle=orthogonalEdgeStyle;rounded=0;orthogonalLoop=1;jettySize=auto;html=1;entryX=0;entryY=0.75;entryDx=0;entryDy=0;" edge="1" parent="E7-By8wQyRp-O-3EYaCL-19" source="E7-By8wQyRp-O-3EYaCL-23" target="E7-By8wQyRp-O-3EYaCL-25">
          <mxGeometry relative="1" as="geometry">
            <Array as="points">
              <mxPoint x="120" y="115" />
              <mxPoint x="120" y="230" />
              <mxPoint x="500" y="230" />
              <mxPoint x="500" y="130" />
            </Array>
          </mxGeometry>
        </mxCell>
        <mxCell id="ltB6q_ZLXanU9qL2ggv_-16" value="Previous Chapters" style="edgeLabel;html=1;align=center;verticalAlign=middle;resizable=0;points=[];" vertex="1" connectable="0" parent="ltB6q_ZLXanU9qL2ggv_-15">
          <mxGeometry x="0.7009" y="1" relative="1" as="geometry">
            <mxPoint x="28" y="1" as="offset" />
          </mxGeometry>
        </mxCell>
        <mxCell id="E7-By8wQyRp-O-3EYaCL-23" value="For Each Chapter In Chapters" style="rhombus;whiteSpace=wrap;html=1;" parent="E7-By8wQyRp-O-3EYaCL-19" vertex="1">
          <mxGeometry x="20" y="75" width="80" height="80" as="geometry" />
        </mxCell>
        <mxCell id="ltB6q_ZLXanU9qL2ggv_-3" style="edgeStyle=orthogonalEdgeStyle;rounded=0;orthogonalLoop=1;jettySize=auto;html=1;entryX=0;entryY=0.5;entryDx=0;entryDy=0;" edge="1" parent="E7-By8wQyRp-O-3EYaCL-19" source="E7-By8wQyRp-O-3EYaCL-23" target="ltB6q_ZLXanU9qL2ggv_-1">
          <mxGeometry relative="1" as="geometry" />
        </mxCell>
        <mxCell id="ltB6q_ZLXanU9qL2ggv_-11" style="edgeStyle=orthogonalEdgeStyle;rounded=0;orthogonalLoop=1;jettySize=auto;html=1;exitX=0.5;exitY=1;exitDx=0;exitDy=0;" edge="1" parent="E7-By8wQyRp-O-3EYaCL-19" source="ltB6q_ZLXanU9qL2ggv_-2" target="E7-By8wQyRp-O-3EYaCL-25">
          <mxGeometry relative="1" as="geometry">
            <Array as="points">
              <mxPoint x="360" y="170" />
              <mxPoint x="460" y="170" />
              <mxPoint x="460" y="100" />
            </Array>
          </mxGeometry>
        </mxCell>
        <mxCell id="ltB6q_ZLXanU9qL2ggv_-12" value="Key Focus Points" style="edgeLabel;html=1;align=center;verticalAlign=middle;resizable=0;points=[];" vertex="1" connectable="0" parent="ltB6q_ZLXanU9qL2ggv_-11">
          <mxGeometry x="0.656" relative="1" as="geometry">
            <mxPoint x="-19" as="offset" />
          </mxGeometry>
        </mxCell>
        <mxCell id="ltB6q_ZLXanU9qL2ggv_-13" style="edgeStyle=orthogonalEdgeStyle;rounded=0;orthogonalLoop=1;jettySize=auto;html=1;entryX=0;entryY=0.5;entryDx=0;entryDy=0;exitX=0.5;exitY=1;exitDx=0;exitDy=0;" edge="1" parent="E7-By8wQyRp-O-3EYaCL-19" source="ltB6q_ZLXanU9qL2ggv_-1" target="E7-By8wQyRp-O-3EYaCL-25">
          <mxGeometry relative="1" as="geometry">
            <Array as="points">
              <mxPoint x="220" y="190" />
              <mxPoint x="480" y="190" />
              <mxPoint x="480" y="115" />
            </Array>
          </mxGeometry>
        </mxCell>
        <mxCell id="ltB6q_ZLXanU9qL2ggv_-14" value="This Chapter Outline" style="edgeLabel;html=1;align=center;verticalAlign=middle;resizable=0;points=[];" vertex="1" connectable="0" parent="ltB6q_ZLXanU9qL2ggv_-13">
          <mxGeometry x="0.7235" y="1" relative="1" as="geometry">
            <mxPoint x="-8" y="1" as="offset" />
          </mxGeometry>
        </mxCell>
        <mxCell id="ltB6q_ZLXanU9qL2ggv_-22" style="edgeStyle=orthogonalEdgeStyle;rounded=0;orthogonalLoop=1;jettySize=auto;html=1;entryX=1;entryY=0.5;entryDx=0;entryDy=0;exitX=1;exitY=0.5;exitDx=0;exitDy=0;" edge="1" parent="E7-By8wQyRp-O-3EYaCL-19" source="UKoIyRiI0bJd6UIJq8W4-4" target="E7-By8wQyRp-O-3EYaCL-29">
          <mxGeometry relative="1" as="geometry">
            <mxPoint x="950" y="360" as="targetPoint" />
            <Array as="points">
              <mxPoint x="1090" y="115" />
              <mxPoint x="1090" y="365" />
            </Array>
          </mxGeometry>
        </mxCell>
        <mxCell id="ltB6q_ZLXanU9qL2ggv_-23" value="Chapter Revision Process" style="swimlane;whiteSpace=wrap;html=1;fillColor=#f8cecc;strokeColor=#b85450;" vertex="1" parent="E7-By8wQyRp-O-3EYaCL-19">
          <mxGeometry x="630" y="275" width="440" height="160" as="geometry" />
        </mxCell>
        <mxCell id="ltB6q_ZLXanU9qL2ggv_-30" style="edgeStyle=orthogonalEdgeStyle;rounded=0;orthogonalLoop=1;jettySize=auto;html=1;entryX=1;entryY=0.5;entryDx=0;entryDy=0;" edge="1" parent="ltB6q_ZLXanU9qL2ggv_-23" source="E7-By8wQyRp-O-3EYaCL-29" target="ltB6q_ZLXanU9qL2ggv_-28">
          <mxGeometry relative="1" as="geometry" />
        </mxCell>
        <mxCell id="ltB6q_ZLXanU9qL2ggv_-33" value="&lt;div&gt;No&lt;/div&gt;" style="edgeLabel;html=1;align=center;verticalAlign=middle;resizable=0;points=[];" vertex="1" connectable="0" parent="ltB6q_ZLXanU9qL2ggv_-30">
          <mxGeometry x="0.4182" relative="1" as="geometry">
            <mxPoint y="-10" as="offset" />
          </mxGeometry>
        </mxCell>
        <mxCell id="E7-By8wQyRp-O-3EYaCL-29" value="Is It Good?" style="rhombus;whiteSpace=wrap;html=1;" parent="ltB6q_ZLXanU9qL2ggv_-23" vertex="1">
          <mxGeometry x="320" y="50" width="80" height="80" as="geometry" />
        </mxCell>
        <mxCell id="ltB6q_ZLXanU9qL2ggv_-31" style="edgeStyle=orthogonalEdgeStyle;rounded=0;orthogonalLoop=1;jettySize=auto;html=1;entryX=1;entryY=0.5;entryDx=0;entryDy=0;" edge="1" parent="ltB6q_ZLXanU9qL2ggv_-23" source="ltB6q_ZLXanU9qL2ggv_-28" target="ltB6q_ZLXanU9qL2ggv_-29">
          <mxGeometry relative="1" as="geometry" />
        </mxCell>
        <mxCell id="ltB6q_ZLXanU9qL2ggv_-28" value="Prompt Model 6 To Generate Feedback/Critique Chapter" style="rounded=0;whiteSpace=wrap;html=1;" vertex="1" parent="ltB6q_ZLXanU9qL2ggv_-23">
          <mxGeometry x="175" y="60" width="120" height="60" as="geometry" />
        </mxCell>
        <mxCell id="ltB6q_ZLXanU9qL2ggv_-32" style="edgeStyle=orthogonalEdgeStyle;rounded=0;orthogonalLoop=1;jettySize=auto;html=1;entryX=0.5;entryY=0;entryDx=0;entryDy=0;" edge="1" parent="ltB6q_ZLXanU9qL2ggv_-23" source="ltB6q_ZLXanU9qL2ggv_-29" target="E7-By8wQyRp-O-3EYaCL-29">
          <mxGeometry relative="1" as="geometry">
            <Array as="points">
              <mxPoint x="95" y="35" />
              <mxPoint x="360" y="35" />
            </Array>
          </mxGeometry>
        </mxCell>
        <mxCell id="ltB6q_ZLXanU9qL2ggv_-29" value="Model 5 Revises Based On Feedback" style="rounded=0;whiteSpace=wrap;html=1;" vertex="1" parent="ltB6q_ZLXanU9qL2ggv_-23">
          <mxGeometry x="35" y="60" width="120" height="60" as="geometry" />
        </mxCell>
        <mxCell id="ltB6q_ZLXanU9qL2ggv_-27" style="edgeStyle=orthogonalEdgeStyle;rounded=0;orthogonalLoop=1;jettySize=auto;html=1;" edge="1" parent="E7-By8wQyRp-O-3EYaCL-19" source="E7-By8wQyRp-O-3EYaCL-29" target="E7-By8wQyRp-O-3EYaCL-23">
          <mxGeometry relative="1" as="geometry">
            <Array as="points">
              <mxPoint x="990" y="455" />
              <mxPoint x="60" y="455" />
            </Array>
          </mxGeometry>
        </mxCell>
        <mxCell id="ltB6q_ZLXanU9qL2ggv_-34" value="&lt;div&gt;Yes&lt;/div&gt;" style="edgeLabel;html=1;align=center;verticalAlign=middle;resizable=0;points=[];" vertex="1" connectable="0" parent="ltB6q_ZLXanU9qL2ggv_-27">
          <mxGeometry x="-0.9863" y="1" relative="1" as="geometry">
            <mxPoint x="-16" as="offset" />
          </mxGeometry>
        </mxCell>
        <mxCell id="ltB6q_ZLXanU9qL2ggv_-24" style="edgeStyle=orthogonalEdgeStyle;rounded=0;orthogonalLoop=1;jettySize=auto;html=1;entryX=0.5;entryY=0;entryDx=0;entryDy=0;" edge="1" parent="E7-By8wQyRp-O-3EYaCL-7" source="E7-By8wQyRp-O-3EYaCL-20" target="E7-By8wQyRp-O-3EYaCL-23">
          <mxGeometry relative="1" as="geometry">
            <Array as="points">
              <mxPoint x="760" y="260" />
              <mxPoint x="100" y="260" />
            </Array>
          </mxGeometry>
        </mxCell>
        <mxCell id="E7-By8wQyRp-O-3EYaCL-20" value="Get Number Chapters In Outline" style="rounded=0;whiteSpace=wrap;html=1;" parent="E7-By8wQyRp-O-3EYaCL-7" vertex="1">
          <mxGeometry x="700" y="160" width="120" height="60" as="geometry" />
        </mxCell>
        <mxCell id="E7-By8wQyRp-O-3EYaCL-21" style="edgeStyle=orthogonalEdgeStyle;rounded=0;orthogonalLoop=1;jettySize=auto;html=1;entryX=0;entryY=0.5;entryDx=0;entryDy=0;" parent="E7-By8wQyRp-O-3EYaCL-7" source="E7-By8wQyRp-O-3EYaCL-13" target="E7-By8wQyRp-O-3EYaCL-20" edge="1">
          <mxGeometry relative="1" as="geometry">
            <Array as="points" />
          </mxGeometry>
        </mxCell>
        <mxCell id="E7-By8wQyRp-O-3EYaCL-22" value="&lt;div&gt;Yes&lt;/div&gt;" style="edgeLabel;html=1;align=center;verticalAlign=middle;resizable=0;points=[];" parent="E7-By8wQyRp-O-3EYaCL-21" vertex="1" connectable="0">
          <mxGeometry x="-0.551" y="1" relative="1" as="geometry">
            <mxPoint x="-11" y="-14" as="offset" />
          </mxGeometry>
        </mxCell>
        <mxCell id="E7-By8wQyRp-O-3EYaCL-35" value="Final Editing Process" style="swimlane;whiteSpace=wrap;html=1;fillColor=#dae8fc;strokeColor=#6c8ebf;" parent="E7-By8wQyRp-O-3EYaCL-7" vertex="1">
          <mxGeometry x="40" y="780" width="280" height="170" as="geometry" />
        </mxCell>
        <mxCell id="ltB6q_ZLXanU9qL2ggv_-36" style="edgeStyle=orthogonalEdgeStyle;rounded=0;orthogonalLoop=1;jettySize=auto;html=1;entryX=0.5;entryY=0;entryDx=0;entryDy=0;" edge="1" parent="E7-By8wQyRp-O-3EYaCL-35" source="E7-By8wQyRp-O-3EYaCL-39" target="E7-By8wQyRp-O-3EYaCL-37">
          <mxGeometry relative="1" as="geometry">
            <Array as="points">
              <mxPoint x="200" y="30" />
              <mxPoint x="65" y="30" />
            </Array>
          </mxGeometry>
        </mxCell>
        <mxCell id="E7-By8wQyRp-O-3EYaCL-39" value="Prompt Model 7 To Clean Up Chapter And Produce FInal Version" style="rounded=0;whiteSpace=wrap;html=1;" parent="E7-By8wQyRp-O-3EYaCL-35" vertex="1">
          <mxGeometry x="135" y="70" width="120" height="60" as="geometry" />
        </mxCell>
        <mxCell id="E7-By8wQyRp-O-3EYaCL-45" value="" style="edgeStyle=orthogonalEdgeStyle;rounded=0;orthogonalLoop=1;jettySize=auto;html=1;" parent="E7-By8wQyRp-O-3EYaCL-35" edge="1">
          <mxGeometry relative="1" as="geometry">
            <mxPoint x="320.0000000000002" y="130" as="targetPoint" />
          </mxGeometry>
        </mxCell>
        <mxCell id="E7-By8wQyRp-O-3EYaCL-37" value="For Each Chapter In Chapters" style="rhombus;whiteSpace=wrap;html=1;" parent="E7-By8wQyRp-O-3EYaCL-35" vertex="1">
          <mxGeometry x="25" y="60" width="80" height="80" as="geometry" />
        </mxCell>
        <mxCell id="E7-By8wQyRp-O-3EYaCL-36" value="" style="edgeStyle=orthogonalEdgeStyle;rounded=0;orthogonalLoop=1;jettySize=auto;html=1;" parent="E7-By8wQyRp-O-3EYaCL-35" source="E7-By8wQyRp-O-3EYaCL-37" target="E7-By8wQyRp-O-3EYaCL-39" edge="1">
          <mxGeometry relative="1" as="geometry" />
        </mxCell>
        <mxCell id="E7-By8wQyRp-O-3EYaCL-49" value="Compose Metadata, Write Output To File" style="rounded=0;whiteSpace=wrap;html=1;" parent="E7-By8wQyRp-O-3EYaCL-7" vertex="1">
          <mxGeometry x="370" y="900" width="120" height="60" as="geometry" />
        </mxCell>
        <mxCell id="ltB6q_ZLXanU9qL2ggv_-35" style="edgeStyle=orthogonalEdgeStyle;rounded=0;orthogonalLoop=1;jettySize=auto;html=1;entryX=0;entryY=0.5;entryDx=0;entryDy=0;" edge="1" parent="E7-By8wQyRp-O-3EYaCL-7" source="E7-By8wQyRp-O-3EYaCL-23" target="E7-By8wQyRp-O-3EYaCL-37">
          <mxGeometry relative="1" as="geometry">
            <mxPoint x="10" y="690" as="targetPoint" />
            <Array as="points">
              <mxPoint x="20" y="400" />
              <mxPoint x="20" y="880" />
            </Array>
          </mxGeometry>
        </mxCell>
        <mxCell id="ltB6q_ZLXanU9qL2ggv_-37" style="edgeStyle=orthogonalEdgeStyle;rounded=0;orthogonalLoop=1;jettySize=auto;html=1;" edge="1" parent="E7-By8wQyRp-O-3EYaCL-7" source="E7-By8wQyRp-O-3EYaCL-37" target="E7-By8wQyRp-O-3EYaCL-49">
          <mxGeometry relative="1" as="geometry">
            <Array as="points">
              <mxPoint x="105" y="930" />
            </Array>
          </mxGeometry>
        </mxCell>
      </root>
    </mxGraphModel>
  </diagram>
</mxfile>
